<svg width="60" height="61" viewBox="0 0 60 61" fill="none" xmlns="http://www.w3.org/2000/svg">
<path fill-rule="evenodd" clip-rule="evenodd" d="M1.70067 2.28014C3.96823 0.0125777 7.64467 0.0125777 9.91223 2.28014L30 22.3679L50.0878 2.28014C52.3553 0.0125777 56.0318 0.0125777 58.2993 2.28014C60.5669 4.5477 60.5669 8.22414 58.2993 10.4917L38.2116 30.5795L58.2993 50.6672C60.5669 52.9348 60.5669 56.6112 58.2993 58.8788C56.0318 61.1464 52.3553 61.1464 50.0878 58.8788L30 38.791L9.91223 58.8788C7.64467 61.1464 3.96823 61.1464 1.70067 58.8788C-0.56689 56.6112 -0.56689 52.9348 1.70067 50.6672L21.7884 30.5795L1.70067 10.4917C-0.56689 8.22414 -0.56689 4.5477 1.70067 2.28014Z" fill="#FFA07A"/>
</svg>
