<svg width="390" height="844" viewBox="0 0 390 844" fill="none" xmlns="http://www.w3.org/2000/svg">
<rect width="390" height="844" fill="#36454F"/>
<path d="M32.5022 77.7893C31.8326 78.4589 31.8326 79.5464 32.5022 80.2161L41.0737 88.7875C41.7433 89.4571 42.8308 89.4571 43.5004 88.7875C44.1701 88.1179 44.1701 87.0304 43.5004 86.3607L37.8487 80.7143H54.2844C55.2326 80.7143 55.9987 79.9482 55.9987 79C55.9987 78.0518 55.2326 77.2857 54.2844 77.2857H37.854L43.4951 71.6393C44.1647 70.9696 44.1647 69.8821 43.4951 69.2125C42.8254 68.5429 41.7379 68.5429 41.0683 69.2125L32.4969 77.7839L32.5022 77.7893Z" fill="white"/>
<path d="M65.9907 88V72.304H68.7747V78.616H75.1347V72.304H77.9187V88H75.1347V81.04H68.7747V88H65.9907ZM86.4887 88.288C85.5127 88.288 84.6007 88.048 83.7527 87.568C82.9047 87.072 82.2167 86.368 81.6887 85.456C81.1607 84.528 80.8967 83.416 80.8967 82.12C80.8967 80.808 81.1607 79.696 81.6887 78.784C82.2167 77.856 82.9047 77.152 83.7527 76.672C84.6007 76.176 85.5127 75.928 86.4887 75.928C87.4807 75.928 88.4007 76.176 89.2487 76.672C90.0967 77.152 90.7847 77.856 91.3127 78.784C91.8407 79.696 92.1047 80.808 92.1047 82.12C92.1047 83.416 91.8407 84.528 91.3127 85.456C90.7847 86.368 90.0967 87.072 89.2487 87.568C88.4007 88.048 87.4807 88.288 86.4887 88.288ZM86.4887 86.032C87.3527 86.032 88.0327 85.672 88.5287 84.952C89.0247 84.232 89.2727 83.288 89.2727 82.12C89.2727 80.936 89.0247 79.984 88.5287 79.264C88.0327 78.544 87.3527 78.184 86.4887 78.184C85.6247 78.184 84.9447 78.544 84.4487 79.264C83.9687 79.984 83.7287 80.936 83.7287 82.12C83.7287 83.288 83.9687 84.232 84.4487 84.952C84.9447 85.672 85.6247 86.032 86.4887 86.032ZM94.8366 88V76.216H97.1166L97.3086 77.824H97.4046C97.9006 77.296 98.4366 76.848 99.0126 76.48C99.6046 76.112 100.269 75.928 101.005 75.928C101.869 75.928 102.557 76.12 103.069 76.504C103.597 76.872 103.997 77.384 104.269 78.04C104.829 77.432 105.413 76.928 106.021 76.528C106.645 76.128 107.325 75.928 108.061 75.928C109.309 75.928 110.229 76.336 110.821 77.152C111.413 77.968 111.709 79.12 111.709 80.608V88H108.925V80.968C108.925 79.992 108.773 79.304 108.469 78.904C108.181 78.504 107.733 78.304 107.125 78.304C106.389 78.304 105.565 78.792 104.653 79.768V88H101.893V80.968C101.893 79.992 101.741 79.304 101.437 78.904C101.149 78.504 100.693 78.304 100.069 78.304C99.3326 78.304 98.5086 78.792 97.5966 79.768V88H94.8366ZM120.103 88.288C119.015 88.288 118.031 88.048 117.151 87.568C116.271 87.072 115.575 86.368 115.063 85.456C114.551 84.528 114.295 83.416 114.295 82.12C114.295 80.84 114.551 79.736 115.063 78.808C115.591 77.88 116.271 77.168 117.103 76.672C117.935 76.176 118.807 75.928 119.719 75.928C120.791 75.928 121.687 76.168 122.407 76.648C123.127 77.112 123.671 77.768 124.039 78.616C124.407 79.448 124.591 80.416 124.591 81.52C124.591 82.096 124.551 82.544 124.471 82.864H116.983C117.111 83.904 117.487 84.712 118.111 85.288C118.735 85.864 119.519 86.152 120.463 86.152C120.975 86.152 121.447 86.08 121.879 85.936C122.327 85.776 122.767 85.56 123.199 85.288L124.135 87.016C123.575 87.384 122.951 87.688 122.263 87.928C121.575 88.168 120.855 88.288 120.103 88.288ZM116.959 80.992H122.191C122.191 80.08 121.991 79.368 121.591 78.856C121.191 78.328 120.591 78.064 119.791 78.064C119.103 78.064 118.487 78.32 117.943 78.832C117.415 79.328 117.087 80.048 116.959 80.992Z" fill="white"/>
<path d="M41.792 157V131.656H33.2V125.704H57.488V131.656H48.896V157H41.792ZM61.7919 157V133.192H68.8479V157H61.7919ZM65.2959 129.688C64.1119 129.688 63.1519 129.352 62.4159 128.68C61.6799 128.008 61.3119 127.112 61.3119 125.992C61.3119 124.872 61.6799 123.976 62.4159 123.304C63.1519 122.632 64.1119 122.296 65.2959 122.296C66.4799 122.296 67.4399 122.632 68.1759 123.304C68.9119 123.976 69.2799 124.872 69.2799 125.992C69.2799 127.112 68.9119 128.008 68.1759 128.68C67.4399 129.352 66.4799 129.688 65.2959 129.688ZM85.4255 157.576C83.2175 157.576 81.2175 157.096 79.4255 156.136C77.6655 155.144 76.2575 153.72 75.2015 151.864C74.1775 149.976 73.6655 147.72 73.6655 145.096C73.6655 142.44 74.2415 140.184 75.3935 138.328C76.5455 136.472 78.0655 135.064 79.9535 134.104C81.8415 133.112 83.8735 132.616 86.0495 132.616C87.5215 132.616 88.8175 132.856 89.9375 133.336C91.0895 133.816 92.1135 134.424 93.0095 135.16L89.6975 139.72C88.5775 138.792 87.5055 138.328 86.4815 138.328C84.7855 138.328 83.4255 138.936 82.4015 140.152C81.4095 141.368 80.9135 143.016 80.9135 145.096C80.9135 147.144 81.4095 148.792 82.4015 150.04C83.4255 151.256 84.7055 151.864 86.2415 151.864C87.0095 151.864 87.7615 151.704 88.4975 151.384C89.2335 151.032 89.9055 150.616 90.5135 150.136L93.2975 154.744C92.1135 155.768 90.8335 156.504 89.4575 156.952C88.0815 157.368 86.7375 157.576 85.4255 157.576ZM116.241 157.576C113.297 157.576 111.185 156.728 109.905 155.032C108.657 153.336 108.033 151.112 108.033 148.36V138.712H104.769V133.48L108.417 133.192L109.233 126.856H115.089V133.192H120.801V138.712H115.089V148.264C115.089 149.608 115.361 150.584 115.905 151.192C116.481 151.768 117.233 152.056 118.161 152.056C118.545 152.056 118.929 152.008 119.313 151.912C119.729 151.816 120.097 151.704 120.417 151.576L121.521 156.712C120.913 156.904 120.161 157.096 119.265 157.288C118.401 157.48 117.393 157.576 116.241 157.576ZM130.511 157.576C128.335 157.576 126.607 156.888 125.327 155.512C124.047 154.104 123.407 152.392 123.407 150.376C123.407 147.88 124.463 145.928 126.575 144.52C128.687 143.112 132.095 142.168 136.799 141.688C136.735 140.632 136.415 139.8 135.839 139.192C135.295 138.552 134.367 138.232 133.055 138.232C132.063 138.232 131.055 138.424 130.031 138.808C129.007 139.192 127.919 139.72 126.767 140.392L124.223 135.736C125.727 134.808 127.327 134.056 129.023 133.48C130.751 132.904 132.543 132.616 134.399 132.616C137.439 132.616 139.775 133.496 141.407 135.256C143.039 137.016 143.855 139.72 143.855 143.368V157H138.095L137.615 154.552H137.423C136.431 155.448 135.359 156.184 134.207 156.76C133.087 157.304 131.855 157.576 130.511 157.576ZM132.911 152.104C133.711 152.104 134.399 151.928 134.975 151.576C135.583 151.192 136.191 150.696 136.799 150.088V145.912C134.303 146.232 132.575 146.744 131.615 147.448C130.655 148.12 130.175 148.92 130.175 149.848C130.175 150.616 130.415 151.192 130.895 151.576C131.407 151.928 132.079 152.104 132.911 152.104ZM160.191 157.576C157.983 157.576 155.983 157.096 154.191 156.136C152.431 155.144 151.023 153.72 149.967 151.864C148.943 149.976 148.431 147.72 148.431 145.096C148.431 142.44 149.007 140.184 150.159 138.328C151.311 136.472 152.831 135.064 154.719 134.104C156.607 133.112 158.639 132.616 160.815 132.616C162.287 132.616 163.583 132.856 164.703 133.336C165.855 133.816 166.879 134.424 167.775 135.16L164.463 139.72C163.343 138.792 162.271 138.328 161.247 138.328C159.551 138.328 158.191 138.936 157.167 140.152C156.175 141.368 155.679 143.016 155.679 145.096C155.679 147.144 156.175 148.792 157.167 150.04C158.191 151.256 159.471 151.864 161.007 151.864C161.775 151.864 162.527 151.704 163.263 151.384C163.999 151.032 164.671 150.616 165.279 150.136L168.063 154.744C166.879 155.768 165.599 156.504 164.223 156.952C162.847 157.368 161.503 157.576 160.191 157.576ZM191.007 157.576C188.063 157.576 185.951 156.728 184.671 155.032C183.423 153.336 182.799 151.112 182.799 148.36V138.712H179.535V133.48L183.183 133.192L183.999 126.856H189.855V133.192H195.567V138.712H189.855V148.264C189.855 149.608 190.127 150.584 190.671 151.192C191.247 151.768 191.999 152.056 192.927 152.056C193.311 152.056 193.695 152.008 194.079 151.912C194.495 151.816 194.863 151.704 195.183 151.576L196.287 156.712C195.679 156.904 194.927 157.096 194.031 157.288C193.167 157.48 192.159 157.576 191.007 157.576ZM209.594 157.576C207.578 157.576 205.674 157.096 203.882 156.136C202.122 155.144 200.698 153.72 199.61 151.864C198.522 149.976 197.978 147.72 197.978 145.096C197.978 142.44 198.522 140.184 199.61 138.328C200.698 136.472 202.122 135.064 203.882 134.104C205.674 133.112 207.578 132.616 209.594 132.616C211.61 132.616 213.498 133.112 215.258 134.104C217.018 135.064 218.442 136.472 219.53 138.328C220.618 140.184 221.162 142.44 221.162 145.096C221.162 147.72 220.618 149.976 219.53 151.864C218.442 153.72 217.018 155.144 215.258 156.136C213.498 157.096 211.61 157.576 209.594 157.576ZM209.594 151.864C211.034 151.864 212.122 151.256 212.858 150.04C213.594 148.792 213.962 147.144 213.962 145.096C213.962 143.016 213.594 141.368 212.858 140.152C212.122 138.936 211.034 138.328 209.594 138.328C208.122 138.328 207.018 138.936 206.282 140.152C205.578 141.368 205.226 143.016 205.226 145.096C205.226 147.144 205.578 148.792 206.282 150.04C207.018 151.256 208.122 151.864 209.594 151.864ZM236.651 157.576C234.379 157.576 232.331 157.08 230.507 156.088C228.683 155.096 227.243 153.672 226.187 151.816C225.131 149.96 224.603 147.72 224.603 145.096C224.603 142.504 225.131 140.28 226.187 138.424C227.275 136.568 228.683 135.144 230.411 134.152C232.139 133.128 233.947 132.616 235.835 132.616C238.107 132.616 239.979 133.128 241.451 134.152C242.955 135.144 244.075 136.504 244.811 138.232C245.579 139.928 245.963 141.864 245.963 144.04C245.963 144.648 245.931 145.256 245.867 145.864C245.803 146.44 245.739 146.872 245.675 147.16H231.419C231.739 148.888 232.459 150.168 233.579 151C234.699 151.8 236.043 152.2 237.611 152.2C239.307 152.2 241.019 151.672 242.747 150.616L245.099 154.888C243.883 155.72 242.523 156.376 241.019 156.856C239.515 157.336 238.059 157.576 236.651 157.576ZM231.371 142.504H239.963C239.963 141.192 239.643 140.12 239.003 139.288C238.395 138.424 237.387 137.992 235.979 137.992C234.891 137.992 233.915 138.376 233.051 139.144C232.187 139.88 231.627 141 231.371 142.504Z" fill="white"/>
<path d="M32 449L32 550C32 554.418 35.5817 558 40 558L141 558M32 449L358 449M32 449L32 340.5M358 449L358 550C358 554.418 354.418 558 350 558L249.5 558M358 449L358 340.5M32 340.5L32 240C32 235.582 35.5817 232 40 232L141 232M32 340.5L358 340.5M358 340.5L358 240C358 235.582 354.418 232 350 232L249.5 232M141 558L141 232M141 558L249.5 558M141 232L249.5 232M249.5 558L249.5 232" stroke="#FFFFCC" stroke-width="3"/>
<path fill-rule="evenodd" clip-rule="evenodd" d="M166.701 366.701C168.968 364.433 172.645 364.433 174.912 366.701L195 386.788L215.088 366.701C217.355 364.433 221.032 364.433 223.299 366.701C225.567 368.968 225.567 372.645 223.299 374.912L203.212 395L223.299 415.088C225.567 417.355 225.567 421.032 223.299 423.299C221.032 425.567 217.355 425.567 215.088 423.299L195 403.212L174.912 423.299C172.645 425.567 168.968 425.567 166.701 423.299C164.433 421.032 164.433 417.355 166.701 415.088L186.788 395L166.701 374.912C164.433 372.645 164.433 368.968 166.701 366.701Z" fill="#FFA07A"/>
<path fill-rule="evenodd" clip-rule="evenodd" d="M275.701 366.701C277.968 364.433 281.645 364.433 283.912 366.701L304 386.788L324.088 366.701C326.355 364.433 330.032 364.433 332.299 366.701C334.567 368.968 334.567 372.645 332.299 374.912L312.212 395L332.299 415.088C334.567 417.355 334.567 421.032 332.299 423.299C330.032 425.567 326.355 425.567 324.088 423.299L304 403.212L283.912 423.299C281.645 425.567 277.968 425.567 275.701 423.299C273.433 421.032 273.433 417.355 275.701 415.088L295.788 395L275.701 374.912C273.433 372.645 273.433 368.968 275.701 366.701Z" fill="#FFA07A"/>
<path fill-rule="evenodd" clip-rule="evenodd" d="M57.7007 257.701C59.9682 255.433 63.6447 255.433 65.9122 257.701L86 277.788L106.088 257.701C108.355 255.433 112.032 255.433 114.299 257.701C116.567 259.968 116.567 263.645 114.299 265.912L94.2116 286L114.299 306.088C116.567 308.355 116.567 312.032 114.299 314.299C112.032 316.567 108.355 316.567 106.088 314.299L86 294.212L65.9122 314.299C63.6447 316.567 59.9682 316.567 57.7007 314.299C55.4331 312.032 55.4331 308.355 57.7007 306.088L77.7884 286L57.7007 265.912C55.4331 263.645 55.4331 259.968 57.7007 257.701Z" fill="#FFA07A"/>
<path fill-rule="evenodd" clip-rule="evenodd" d="M195 267.613C184.845 267.613 176.613 275.845 176.613 286C176.613 296.155 184.845 304.387 195 304.387C205.155 304.387 213.387 296.155 213.387 286C213.387 275.845 205.155 267.613 195 267.613ZM165 286C165 269.431 178.431 256 195 256C211.569 256 225 269.431 225 286C225 302.569 211.569 316 195 316C178.431 316 165 302.569 165 286Z" fill="#8FBC8F"/>
<path fill-rule="evenodd" clip-rule="evenodd" d="M304 267.613C293.845 267.613 285.613 275.845 285.613 286C285.613 296.155 293.845 304.387 304 304.387C314.155 304.387 322.387 296.155 322.387 286C322.387 275.845 314.155 267.613 304 267.613ZM274 286C274 269.431 287.431 256 304 256C320.569 256 334 269.431 334 286C334 302.569 320.569 316 304 316C287.431 316 274 302.569 274 286Z" fill="#8FBC8F"/>
<path fill-rule="evenodd" clip-rule="evenodd" d="M158 595.806C152.923 595.806 148.806 599.923 148.806 605C148.806 610.077 152.923 614.194 158 614.194C163.077 614.194 167.194 610.077 167.194 605C167.194 599.923 163.077 595.806 158 595.806ZM143 605C143 596.716 149.716 590 158 590C166.284 590 173 596.716 173 605C173 613.284 166.284 620 158 620C149.716 620 143 613.284 143 605Z" fill="#8FBC8F"/>
<path d="M180.575 604.832C179.983 604.832 179.519 604.6 179.183 604.136C178.863 603.656 178.703 603 178.703 602.168C178.703 600.072 179.695 598.504 181.679 597.464L182.351 598.688C181.695 599.072 181.199 599.496 180.863 599.96C180.527 600.424 180.359 601.008 180.359 601.712C180.407 601.696 180.479 601.688 180.575 601.688C181.007 601.688 181.375 601.824 181.679 602.096C181.999 602.352 182.159 602.712 182.159 603.176C182.159 603.672 182.007 604.072 181.703 604.376C181.415 604.68 181.039 604.832 180.575 604.832ZM188.774 614.288C187.974 614.288 187.174 614.136 186.374 613.832C185.574 613.512 184.886 613.12 184.31 612.656L185.606 610.88C186.134 611.28 186.662 611.6 187.19 611.84C187.718 612.08 188.278 612.2 188.87 612.2C189.51 612.2 189.982 612.064 190.286 611.792C190.59 611.52 190.742 611.184 190.742 610.784C190.742 610.448 190.614 610.176 190.358 609.968C190.118 609.744 189.806 609.552 189.422 609.392C189.038 609.216 188.638 609.048 188.222 608.888C187.71 608.696 187.198 608.464 186.686 608.192C186.19 607.904 185.782 607.544 185.462 607.112C185.142 606.664 184.982 606.112 184.982 605.456C184.982 604.416 185.366 603.568 186.134 602.912C186.902 602.256 187.942 601.928 189.254 601.928C190.086 601.928 190.83 602.072 191.486 602.36C192.142 602.648 192.71 602.976 193.19 603.344L191.918 605.024C191.502 604.72 191.078 604.48 190.646 604.304C190.23 604.112 189.79 604.016 189.326 604.016C188.734 604.016 188.294 604.144 188.006 604.4C187.718 604.64 187.574 604.944 187.574 605.312C187.574 605.776 187.814 606.128 188.294 606.368C188.774 606.608 189.334 606.84 189.974 607.064C190.518 607.256 191.046 607.496 191.558 607.784C192.07 608.056 192.494 608.416 192.83 608.864C193.182 609.312 193.358 609.904 193.358 610.64C193.358 611.648 192.966 612.512 192.182 613.232C191.398 613.936 190.262 614.288 188.774 614.288ZM204.035 614V600.656H199.499V598.304H211.355V600.656H206.819V614H204.035ZM216.178 614.288C214.914 614.288 213.994 613.88 213.418 613.064C212.842 612.248 212.554 611.096 212.554 609.608V602.216H215.314V609.248C215.314 610.224 215.458 610.912 215.746 611.312C216.034 611.712 216.498 611.912 217.138 611.912C217.65 611.912 218.098 611.784 218.482 611.528C218.882 611.272 219.306 610.856 219.754 610.28V602.216H222.514V614H220.258L220.042 612.272H219.97C219.458 612.88 218.898 613.368 218.29 613.736C217.682 614.104 216.978 614.288 216.178 614.288ZM226.01 614V602.216H228.29L228.482 604.304H228.578C228.994 603.536 229.498 602.952 230.09 602.552C230.682 602.136 231.29 601.928 231.914 601.928C232.474 601.928 232.922 602.008 233.258 602.168L232.778 604.568C232.57 604.504 232.378 604.456 232.202 604.424C232.026 604.392 231.81 604.376 231.554 604.376C231.09 604.376 230.602 604.56 230.09 604.928C229.578 605.28 229.138 605.904 228.77 606.8V614H226.01ZM234.963 614V602.216H237.243L237.435 603.8H237.531C238.059 603.288 238.635 602.848 239.259 602.48C239.883 602.112 240.595 601.928 241.395 601.928C242.659 601.928 243.579 602.336 244.155 603.152C244.731 603.968 245.019 605.12 245.019 606.608V614H242.259V606.968C242.259 605.992 242.115 605.304 241.827 604.904C241.539 604.504 241.067 604.304 240.411 604.304C239.899 604.304 239.443 604.432 239.043 604.688C238.659 604.928 238.219 605.288 237.723 605.768V614H234.963Z" fill="white"/>
<path d="M33.992 676V660.304H39.296C40.384 660.304 41.36 660.448 42.224 660.736C43.104 661.024 43.792 661.512 44.288 662.2C44.8 662.872 45.056 663.792 45.056 664.96C45.056 666.16 44.768 667.128 44.192 667.864C43.632 668.6 42.88 669.128 41.936 669.448L45.68 676H42.56L39.176 669.856H36.776V676H33.992ZM36.776 667.648H39.008C40.08 667.648 40.896 667.424 41.456 666.976C42.032 666.512 42.32 665.84 42.32 664.96C42.32 664.064 42.032 663.44 41.456 663.088C40.896 662.72 40.08 662.536 39.008 662.536H36.776V667.648ZM52.7608 676.288C51.6728 676.288 50.6888 676.048 49.8088 675.568C48.9288 675.072 48.2328 674.368 47.7208 673.456C47.2088 672.528 46.9528 671.416 46.9528 670.12C46.9528 668.84 47.2088 667.736 47.7208 666.808C48.2488 665.88 48.9288 665.168 49.7608 664.672C50.5928 664.176 51.4648 663.928 52.3768 663.928C53.4488 663.928 54.3448 664.168 55.0648 664.648C55.7848 665.112 56.3288 665.768 56.6968 666.616C57.0648 667.448 57.2488 668.416 57.2488 669.52C57.2488 670.096 57.2088 670.544 57.1288 670.864H49.6408C49.7688 671.904 50.1448 672.712 50.7688 673.288C51.3928 673.864 52.1768 674.152 53.1208 674.152C53.6328 674.152 54.1048 674.08 54.5368 673.936C54.9848 673.776 55.4248 673.56 55.8568 673.288L56.7928 675.016C56.2328 675.384 55.6088 675.688 54.9208 675.928C54.2328 676.168 53.5128 676.288 52.7608 676.288ZM49.6168 668.992H54.8488C54.8488 668.08 54.6488 667.368 54.2488 666.856C53.8488 666.328 53.2488 666.064 52.4488 666.064C51.7608 666.064 51.1448 666.32 50.6008 666.832C50.0728 667.328 49.7448 668.048 49.6168 668.992ZM63.1728 676.288C62.3728 676.288 61.5728 676.136 60.7728 675.832C59.9728 675.512 59.2848 675.12 58.7088 674.656L60.0048 672.88C60.5328 673.28 61.0608 673.6 61.5888 673.84C62.1168 674.08 62.6768 674.2 63.2688 674.2C63.9088 674.2 64.3808 674.064 64.6848 673.792C64.9888 673.52 65.1408 673.184 65.1408 672.784C65.1408 672.448 65.0128 672.176 64.7568 671.968C64.5168 671.744 64.2048 671.552 63.8208 671.392C63.4368 671.216 63.0368 671.048 62.6208 670.888C62.1088 670.696 61.5968 670.464 61.0848 670.192C60.5888 669.904 60.1808 669.544 59.8608 669.112C59.5408 668.664 59.3808 668.112 59.3808 667.456C59.3808 666.416 59.7648 665.568 60.5328 664.912C61.3008 664.256 62.3408 663.928 63.6528 663.928C64.4848 663.928 65.2288 664.072 65.8848 664.36C66.5408 664.648 67.1088 664.976 67.5888 665.344L66.3168 667.024C65.9008 666.72 65.4768 666.48 65.0448 666.304C64.6288 666.112 64.1888 666.016 63.7248 666.016C63.1328 666.016 62.6928 666.144 62.4048 666.4C62.1168 666.64 61.9728 666.944 61.9728 667.312C61.9728 667.776 62.2128 668.128 62.6928 668.368C63.1728 668.608 63.7328 668.84 64.3728 669.064C64.9168 669.256 65.4448 669.496 65.9568 669.784C66.4688 670.056 66.8928 670.416 67.2288 670.864C67.5808 671.312 67.7568 671.904 67.7568 672.64C67.7568 673.648 67.3648 674.512 66.5808 675.232C65.7968 675.936 64.6608 676.288 63.1728 676.288ZM75.2608 676.288C74.1728 676.288 73.1888 676.048 72.3088 675.568C71.4288 675.072 70.7328 674.368 70.2208 673.456C69.7088 672.528 69.4528 671.416 69.4528 670.12C69.4528 668.84 69.7088 667.736 70.2208 666.808C70.7488 665.88 71.4288 665.168 72.2608 664.672C73.0928 664.176 73.9648 663.928 74.8768 663.928C75.9488 663.928 76.8448 664.168 77.5648 664.648C78.2848 665.112 78.8288 665.768 79.1968 666.616C79.5648 667.448 79.7488 668.416 79.7488 669.52C79.7488 670.096 79.7088 670.544 79.6288 670.864H72.1408C72.2688 671.904 72.6448 672.712 73.2688 673.288C73.8928 673.864 74.6768 674.152 75.6208 674.152C76.1328 674.152 76.6048 674.08 77.0368 673.936C77.4848 673.776 77.9248 673.56 78.3568 673.288L79.2928 675.016C78.7328 675.384 78.1088 675.688 77.4208 675.928C76.7328 676.168 76.0128 676.288 75.2608 676.288ZM72.1168 668.992H77.3488C77.3488 668.08 77.1488 667.368 76.7488 666.856C76.3488 666.328 75.7488 666.064 74.9488 666.064C74.2608 666.064 73.6448 666.32 73.1008 666.832C72.5728 667.328 72.2448 668.048 72.1168 668.992ZM86.3024 676.288C84.9424 676.288 83.9744 675.896 83.3984 675.112C82.8384 674.312 82.5584 673.28 82.5584 672.016V666.4H80.8784V664.336L82.7024 664.216L83.0384 661H85.3424V664.216H88.3424V666.4H85.3424V672.016C85.3424 673.392 85.8944 674.08 86.9984 674.08C87.2064 674.08 87.4224 674.056 87.6464 674.008C87.8704 673.944 88.0624 673.88 88.2224 673.816L88.7024 675.856C88.3824 675.968 88.0144 676.064 87.5984 676.144C87.1984 676.24 86.7664 676.288 86.3024 676.288Z" fill="white"/>
<path d="M309.997 676.288C308.797 676.288 307.749 676.048 306.853 675.568C305.957 675.088 305.261 674.32 304.765 673.264C304.285 672.208 304.045 670.824 304.045 669.112V660.304H306.829V669.328C306.829 670.464 306.957 671.368 307.213 672.04C307.485 672.696 307.861 673.168 308.341 673.456C308.821 673.728 309.373 673.864 309.997 673.864C310.637 673.864 311.197 673.728 311.677 673.456C312.173 673.168 312.557 672.696 312.829 672.04C313.117 671.368 313.261 670.464 313.261 669.328V660.304H315.925V669.112C315.925 670.824 315.685 672.208 315.205 673.264C314.725 674.32 314.037 675.088 313.141 675.568C312.261 676.048 311.213 676.288 309.997 676.288ZM319.604 676V664.216H321.884L322.076 665.8H322.172C322.7 665.288 323.276 664.848 323.9 664.48C324.524 664.112 325.236 663.928 326.036 663.928C327.3 663.928 328.22 664.336 328.796 665.152C329.372 665.968 329.66 667.12 329.66 668.608V676H326.9V668.968C326.9 667.992 326.756 667.304 326.468 666.904C326.18 666.504 325.708 666.304 325.052 666.304C324.54 666.304 324.084 666.432 323.684 666.688C323.3 666.928 322.86 667.288 322.364 667.768V676H319.604ZM337.161 676.288C335.689 676.288 334.513 675.744 333.633 674.656C332.753 673.568 332.313 672.056 332.313 670.12C332.313 668.84 332.545 667.736 333.009 666.808C333.489 665.88 334.113 665.168 334.881 664.672C335.649 664.176 336.457 663.928 337.305 663.928C337.977 663.928 338.545 664.048 339.009 664.288C339.489 664.512 339.953 664.824 340.401 665.224L340.305 663.328V659.056H343.065V676H340.785L340.593 674.728H340.497C340.065 675.16 339.561 675.528 338.985 675.832C338.409 676.136 337.801 676.288 337.161 676.288ZM337.833 674.008C338.713 674.008 339.537 673.568 340.305 672.688V667.192C339.905 666.824 339.505 666.568 339.105 666.424C338.705 666.28 338.305 666.208 337.905 666.208C337.153 666.208 336.505 666.552 335.961 667.24C335.433 667.912 335.169 668.864 335.169 670.096C335.169 671.36 335.401 672.328 335.865 673C336.329 673.672 336.985 674.008 337.833 674.008ZM351.404 676.288C350.428 676.288 349.516 676.048 348.668 675.568C347.82 675.072 347.132 674.368 346.604 673.456C346.076 672.528 345.812 671.416 345.812 670.12C345.812 668.808 346.076 667.696 346.604 666.784C347.132 665.856 347.82 665.152 348.668 664.672C349.516 664.176 350.428 663.928 351.404 663.928C352.396 663.928 353.316 664.176 354.164 664.672C355.012 665.152 355.7 665.856 356.228 666.784C356.756 667.696 357.02 668.808 357.02 670.12C357.02 671.416 356.756 672.528 356.228 673.456C355.7 674.368 355.012 675.072 354.164 675.568C353.316 676.048 352.396 676.288 351.404 676.288ZM351.404 674.032C352.268 674.032 352.948 673.672 353.444 672.952C353.94 672.232 354.188 671.288 354.188 670.12C354.188 668.936 353.94 667.984 353.444 667.264C352.948 666.544 352.268 666.184 351.404 666.184C350.54 666.184 349.86 666.544 349.364 667.264C348.884 667.984 348.644 668.936 348.644 670.12C348.644 671.288 348.884 672.232 349.364 672.952C349.86 673.672 350.54 674.032 351.404 674.032Z" fill="white"/>
</svg>
